<?xml version="1.0" standalone="no"?>
<!DOCTYPE svg PUBLIC "-//W3C//DTD SVG 1.1//EN" "http://www.w3.org/Graphics/SVG/1.1/DTD/svg11.dtd" >
<svg xmlns="http://www.w3.org/2000/svg" xmlns:xlink="http://www.w3.org/1999/xlink" version="1.1">
<metadata>
Created by FontForge 20190801 at Tue Jul 12 00:05:18 2016
 By Jimmy Wärting
(c)2013 Optimo.
</metadata>
<defs>
<font id="PxGrotesk-Bold" horiz-adv-x="1228" >
  <font-face 
    font-family="Px Grotesk Bold"
    font-weight="700"
    font-stretch="normal"
    units-per-em="2048"
    panose-1="0 0 0 0 0 0 0 0 0 0"
    ascent="1649"
    descent="-399"
    x-height="1044"
    cap-height="1393"
    bbox="-100 -399 2071 1929"
    underline-thickness="102"
    underline-position="-204"
    stemh="199"
    stemv="256"
    unicode-range="U+001D-FB02"
  />
<missing-glyph horiz-adv-x="748" 
d="M136 1297v-1229h408v1229h-408zM612 0h-544v1365h544v-1365z" />
    <glyph glyph-name=".notdef" horiz-adv-x="748" 
d="M136 1297v-1229h408v1229h-408zM612 0h-544v1365h544v-1365z" />
    <glyph glyph-name="space" unicode=" " horiz-adv-x="503" 
 />
    <glyph glyph-name="exclam" unicode="!" horiz-adv-x="620" 
d="M223 406l-41 305v682h256v-682l-41 -305h-174zM459 0h-297v295h297v-295z" />
    <glyph glyph-name="quotedbl" unicode="&#x22;" horiz-adv-x="913" 
d="M762 887h-227v536h227v-536zM379 887h-227v536h227v-536z" />
    <glyph glyph-name="numbersign" unicode="#" horiz-adv-x="1345" 
d="M571 848l-39 -305h236l39 305h-236zM295 344h-191v199h222l43 305h-219v196h247l52 349h204l-51 -349h236l51 349h205l-52 -349h201v-196h-229l-43 -305h223v-199h-254l-49 -344h-205l49 344h-235l-49 -344h-205z" />
    <glyph glyph-name="dollar" unicode="$" horiz-adv-x="1208" 
d="M684 567v-374c107 19 180 78 180 182c0 96 -49 160 -180 192zM375 1038c0 -88 36 -146 137 -182v340c-79 -21 -137 -74 -137 -158zM84 416h256c11 -123 76 -192 172 -219v413l-55 15c-225 61 -338 201 -338 405c0 205 167 360 393 387v170h172v-170
c213 -27 373 -158 389 -403h-256c-8 109 -62 159 -133 180v-383l86 -20c222 -52 354 -191 354 -412c0 -242 -187 -382 -440 -406v-168h-172v170c-231 27 -407 168 -428 441z" />
    <glyph glyph-name="percent" unicode="%" horiz-adv-x="1658" 
d="M1165 485v-256c0 -68 38 -102 113 -102s113 34 113 102v256c0 69 -38 105 -113 105c-75 1 -113 -35 -113 -105zM977 358c0 213 86 375 301 375s301 -162 301 -375s-86 -374 -301 -374s-301 161 -301 374zM496 0h-205l872 1393h205zM268 1161v-256c0 -68 38 -102 113 -102
s113 34 113 102v256c0 69 -38 105 -113 105c-75 1 -113 -35 -113 -105zM96 885c-22 92 -22 206 0 297c22 92 71 161 147 198c39 19 85 29 138 29s99 -10 137 -29c76 -37 125 -106 147 -198c22 -91 22 -205 0 -297c-22 -91 -71 -158 -147 -197c-38 -19 -84 -29 -137 -29
s-99 9 -138 29c-76 38 -125 106 -147 197z" />
    <glyph glyph-name="ampersand" unicode="&#x26;" horiz-adv-x="1310" 
d="M463 1120c0 -60 36 -114 115 -207c44 39 77 74 100 105s35 67 35 108c0 63 -52 99 -123 99s-127 -42 -127 -105zM375 408v-111c0 -35 17 -65 51 -88s77 -35 129 -35c96 0 161 31 221 94l-252 326l-114 -90c-31 -24 -35 -56 -35 -96zM109 344c0 81 17 148 50 202
s79 103 136 148l94 74c-59 71 -104 131 -136 182s-48 104 -48 160c0 196 188 313 391 313c210 0 375 -102 375 -305c0 -69 -24 -135 -73 -197c-49 -61 -112 -121 -189 -180l139 -190h10v192h236v-499l192 -244h-297l-78 100c-56 -47 -113 -79 -171 -98
c-58 -18 -128 -27 -210 -27c-251 0 -421 118 -421 369z" />
    <glyph glyph-name="quoteright" unicode="&#x2019;" horiz-adv-x="561" 
d="M301 1098h-154v295h295v-295l-153 -271h-135z" />
    <glyph glyph-name="parenleft" unicode="(" horiz-adv-x="696" 
d="M106 559c0 405 120 668 306 907h235c-185 -251 -285 -465 -285 -692v-430c0 -227 110 -460 285 -692h-235c-186 239 -306 504 -306 907z" />
    <glyph glyph-name="parenright" unicode=")" horiz-adv-x="696" 
d="M285 -348h-236c87 116 157 231 208 346s77 223 77 326v471c0 205 -100 420 -285 671h236c186 -239 305 -502 305 -907s-121 -666 -305 -907z" />
    <glyph glyph-name="asterisk" unicode="*" horiz-adv-x="905" 
d="M186 809l-71 123l194 112l-194 113l71 123l195 -113v226h143v-226l195 113l72 -123l-197 -113l197 -112l-72 -123l-195 113v-226h-143v226z" />
    <glyph glyph-name="plus" unicode="+" 
d="M512 424h-430v197h430v423h205v-423h430v-197h-430v-424h-205v424z" />
    <glyph glyph-name="comma" unicode="," horiz-adv-x="585" 
d="M299 0h-154v295h295v-295l-153 -270h-135z" />
    <glyph glyph-name="hyphen" unicode="-" horiz-adv-x="864" 
d="M719 451h-574v208h574v-208z" />
    <glyph glyph-name="period" unicode="." horiz-adv-x="585" 
d="M440 0h-295v295h295v-295z" />
    <glyph glyph-name="slash" unicode="/" horiz-adv-x="1001" 
d="M313 0h-266l639 1393h266z" />
    <glyph glyph-name="zero" unicode="0" 
d="M377 967v-541c0 -161 78 -242 237 -242s238 81 238 242v541c0 161 -79 242 -238 241c-159 0 -237 -80 -237 -241zM100 696c0 411 105 727 514 727c308 0 445 -178 491 -440c16 -89 23 -184 23 -287c0 -205 -26 -388 -103 -517c-39 -65 -91 -116 -158 -154
c-66 -37 -150 -56 -253 -56s-187 19 -253 56c-66 38 -119 89 -158 154c-77 129 -103 313 -103 517z" />
    <glyph glyph-name="one" unicode="1" 
d="M1141 0h-983v215h379v750h-379v215h379v213h256v-1178h348v-215z" />
    <glyph glyph-name="two" unicode="2" 
d="M1102 0h-975v217l561 547c83 81 135 157 135 250c0 123 -84 194 -205 194c-141 0 -225 -80 -225 -225h-260c0 266 210 440 494 440c286 0 454 -164 454 -409c0 -165 -98 -301 -202 -398l-424 -397v-4h647v-215z" />
    <glyph glyph-name="three" unicode="3" 
d="M98 406h260c3 -78 27 -135 74 -170s105 -52 174 -52c71 0 128 17 171 51c43 35 65 76 65 125v125c0 82 -44 123 -131 123h-289v213h274c91 0 121 48 121 119v111c0 53 -20 93 -59 118c-39 26 -87 39 -144 39c-128 0 -215 -54 -223 -182h-260c0 246 195 397 483 397
c286 0 476 -148 476 -374c0 -164 -67 -269 -203 -332c151 -63 227 -158 227 -338c0 -258 -209 -410 -506 -410c-287 0 -510 142 -510 437z" />
    <glyph glyph-name="four" unicode="4" 
d="M690 1079l-371 -538h371v538zM690 328h-614v213l586 852h284v-852h201v-213h-201v-328h-256v328z" />
    <glyph glyph-name="five" unicode="5" 
d="M111 385h260c8 -77 33 -130 75 -159c43 -29 98 -44 166 -44s123 17 166 50c43 34 64 80 64 137v184c0 61 -23 105 -68 132s-98 40 -160 40c-93 0 -180 -48 -221 -135h-260l55 803h846v-213h-614l-25 -375c65 81 160 133 283 133c266 0 440 -196 440 -473
c0 -308 -192 -496 -502 -496c-317 0 -484 151 -505 416z" />
    <glyph glyph-name="six" unicode="6" 
d="M379 512v-117c0 -128 88 -213 244 -213s237 85 237 213v117c0 128 -82 190 -237 190c-156 0 -244 -62 -244 -190zM102 668c0 439 140 755 527 755c281 0 450 -136 473 -376h-260c-13 115 -92 163 -215 163c-78 0 -139 -26 -183 -77c-43 -51 -65 -117 -65 -199v-152
c68 88 160 133 303 133c272 0 455 -181 455 -454c0 -257 -168 -492 -514 -492c-181 0 -314 57 -397 172s-124 290 -124 527z" />
    <glyph glyph-name="seven" unicode="7" 
d="M846 1180h-721v213h993v-205l-528 -1188h-283z" />
    <glyph glyph-name="eight" unicode="8" 
d="M406 1063v-90c0 -199 417 -199 417 0v90c0 104 -107 145 -209 145s-208 -41 -208 -145zM369 451v-109c0 -103 109 -158 245 -158c137 0 246 55 246 158v109c0 51 -24 89 -72 117c-47 27 -105 42 -174 42c-68 0 -126 -14 -174 -42c-47 -28 -71 -67 -71 -117zM92 373
c0 172 95 295 254 352c-142 61 -213 169 -213 322c0 234 225 376 481 376c257 0 482 -142 482 -376c0 -153 -71 -260 -213 -322c159 -57 254 -180 254 -352c0 -276 -247 -404 -523 -404c-275 0 -522 127 -522 404z" />
    <glyph glyph-name="nine" unicode="9" 
d="M367 997v-116c0 -128 81 -191 237 -191s244 62 244 191v116c0 128 -88 213 -244 213s-237 -84 -237 -213zM90 932c0 256 168 491 514 491c363 0 520 -229 520 -698c0 -438 -138 -756 -526 -756c-281 0 -452 137 -473 377h260c13 -115 92 -164 215 -164
c78 0 139 26 182 77c44 51 66 118 66 200v151c-68 -88 -162 -133 -303 -133c-273 0 -455 182 -455 455z" />
    <glyph glyph-name="colon" unicode=":" horiz-adv-x="585" 
d="M440 750h-295v294h295v-294zM440 0h-295v295h295v-295z" />
    <glyph glyph-name="semicolon" unicode=";" horiz-adv-x="585" 
d="M440 750h-295v294h295v-294zM299 0h-154v295h295v-295l-153 -270h-135z" />
    <glyph glyph-name="less" unicode="&#x3c;" 
d="M1126 0l-1065 428v188l1065 428v-210l-780 -312l780 -311v-211z" />
    <glyph glyph-name="equal" unicode="=" 
d="M1147 621h-1065v196h1065v-196zM1147 227h-1065v197h1065v-197z" />
    <glyph glyph-name="greater" unicode="&#x3e;" 
d="M1167 428l-1065 -428v211l781 311l-781 312v210l1065 -428v-188z" />
    <glyph glyph-name="question" unicode="?" horiz-adv-x="1052" 
d="M639 0h-295v295h295v-295zM322 1026h-256c9 124 57 221 142 291c85 71 197 106 335 106c267 0 438 -157 438 -393c0 -81 -16 -147 -47 -198s-73 -99 -125 -146c-109 -98 -191 -146 -191 -260v-20h-256v20c0 149 57 230 189 340c57 47 101 90 130 131s44 87 44 139
c0 109 -58 178 -195 178c-139 0 -200 -73 -208 -188z" />
    <glyph glyph-name="at" unicode="@" horiz-adv-x="1927" 
d="M1278 -199h-1073v1442h1585v-1001h-1073v561h561v-363h256v604h-1073v-1044h817v-199z" />
    <glyph glyph-name="A" unicode="A" horiz-adv-x="1314" 
d="M655 1071l-168 -549h338l-161 549h-9zM328 0h-287l475 1393h283l473 -1393h-287l-92 297h-475z" />
    <glyph glyph-name="B" unicode="B" horiz-adv-x="1339" 
d="M438 1167v-336h363c88 0 114 42 114 123v107c0 71 -38 106 -114 106h-363zM438 606v-381h377c88 0 131 38 131 125v137c0 79 -41 119 -123 119h-385zM776 0h-604v1393h594c253 0 426 -99 426 -353c0 -159 -80 -266 -211 -315c148 -41 242 -151 242 -319
c0 -298 -178 -406 -447 -406z" />
    <glyph glyph-name="C" unicode="C" horiz-adv-x="1335" 
d="M113 692c0 443 193 731 598 731c285 0 498 -171 514 -446h-267c-13 148 -107 221 -266 221c-171 0 -293 -112 -293 -287v-426c0 -169 134 -290 301 -290s254 67 281 231h266c-42 -320 -260 -457 -551 -457c-402 0 -583 305 -583 723z" />
    <glyph glyph-name="D" unicode="D" horiz-adv-x="1378" 
d="M438 1167v-942h205c221 0 342 84 342 271v401c0 185 -121 270 -342 270h-205zM643 0h-471v1393h471c220 0 378 -58 474 -173c97 -115 145 -290 145 -524c0 -233 -48 -408 -145 -523c-96 -115 -254 -173 -474 -173z" />
    <glyph glyph-name="E" unicode="E" horiz-adv-x="1245" 
d="M1130 0h-958v1393h958v-226h-692v-342h598v-225h-598v-375h692v-225z" />
    <glyph glyph-name="F" unicode="F" horiz-adv-x="1146" 
d="M438 0h-266v1393h889v-226h-623v-342h574v-225h-574v-600z" />
    <glyph glyph-name="G" unicode="G" horiz-adv-x="1400" 
d="M113 692c0 443 192 731 608 731c293 0 508 -171 524 -446h-266c-15 147 -108 221 -277 221c-90 0 -163 -26 -219 -78s-84 -122 -84 -209v-426c0 -169 132 -290 306 -290c90 0 162 22 215 67c54 45 81 116 81 213v60h-286v225h553v-760h-248l-6 127
c-71 -105 -183 -158 -334 -158c-377 0 -567 305 -567 723z" />
    <glyph glyph-name="H" unicode="H" horiz-adv-x="1431" 
d="M438 0h-266v1393h266v-572h555v572h267v-1393h-267v596h-555v-596z" />
    <glyph glyph-name="I" unicode="I" horiz-adv-x="610" 
d="M438 0h-266v1393h266v-1393z" />
    <glyph glyph-name="J" unicode="J" horiz-adv-x="903" 
d="M731 0h-694v225h428v1168h266v-1393z" />
    <glyph glyph-name="K" unicode="K" horiz-adv-x="1318" 
d="M979 0l-537 743l502 650h313l-522 -650l551 -743h-307zM438 0h-266v1393h266v-1393z" />
    <glyph glyph-name="L" unicode="L" horiz-adv-x="1062" 
d="M1028 0h-856v1393h266v-1168h590v-225z" />
    <glyph glyph-name="M" unicode="M" horiz-adv-x="1759" 
d="M428 0h-256v1393h434l271 -1094h8l266 1094h436v-1393h-256v1104h-8l-285 -1104h-317l-285 1104h-8v-1104z" />
    <glyph glyph-name="N" unicode="N" horiz-adv-x="1431" 
d="M436 0h-264v1393h399l416 -1061h8v1061h265v-1393h-400l-416 1063h-8v-1063z" />
    <glyph glyph-name="O" unicode="O" horiz-adv-x="1466" 
d="M399 911v-430c0 -186 151 -286 334 -286c185 0 334 100 334 286v430c0 185 -149 287 -334 287c-183 0 -334 -102 -334 -287zM274 153c-107 123 -161 304 -161 543s54 419 161 542c108 123 261 185 459 185s351 -62 459 -185s162 -303 162 -542s-54 -420 -162 -543
s-261 -184 -459 -184s-351 61 -459 184z" />
    <glyph glyph-name="P" unicode="P" horiz-adv-x="1251" 
d="M438 1167v-442h330c93 0 131 47 131 139v172c0 93 -32 131 -131 131h-330zM438 0h-266v1393h567c297 0 437 -138 437 -447c0 -147 -40 -259 -119 -334s-185 -112 -316 -112h-303v-500z" />
    <glyph glyph-name="Q" unicode="Q" horiz-adv-x="1472" 
d="M399 911v-430c0 -186 151 -286 334 -286c185 0 334 100 334 286v430c0 185 -149 287 -334 287c-183 0 -334 -102 -334 -287zM1354 696c0 -210 -44 -376 -131 -499l202 -197l-170 -170l-213 207c-88 -44 -189 -68 -309 -68c-198 0 -351 61 -459 184
c-107 123 -161 304 -161 543s54 419 161 542c108 123 261 185 459 185s351 -61 459 -184s162 -304 162 -543z" />
    <glyph glyph-name="R" unicode="R" horiz-adv-x="1298" 
d="M438 1167v-413h336c83 0 125 46 125 139v143c0 93 -32 131 -125 131h-336zM438 0h-266v1393h567c297 0 437 -138 437 -430c0 -221 -111 -354 -299 -406l319 -557h-295l-293 535h-170v-535z" />
    <glyph glyph-name="S" unicode="S" horiz-adv-x="1286" 
d="M88 416h266c21 -164 131 -228 295 -228c78 0 144 16 197 48c53 33 80 80 80 141c0 99 -60 152 -187 186l-272 72c-229 61 -338 199 -338 403c0 225 197 385 508 385c284 0 493 -128 520 -419h-266c-16 155 -132 200 -258 200c-148 0 -238 -63 -238 -164
c0 -107 66 -155 199 -190l237 -62c119 -31 208 -79 269 -142s92 -152 92 -267c0 -256 -220 -410 -539 -410c-309 0 -544 124 -565 447z" />
    <glyph glyph-name="T" unicode="T" horiz-adv-x="1155" 
d="M444 1167h-405v226h1077v-226h-405v-1167h-267v1167z" />
    <glyph glyph-name="U" unicode="U" horiz-adv-x="1404" 
d="M158 496v897h266v-908c0 -180 93 -290 278 -290c188 0 281 107 281 290v908h264v-897c0 -323 -208 -527 -545 -527c-336 0 -544 201 -544 527z" />
    <glyph glyph-name="V" unicode="V" horiz-adv-x="1298" 
d="M502 0l-441 1393h289l297 -1088h8l291 1088h293l-442 -1393h-295z" />
    <glyph glyph-name="W" unicode="W" horiz-adv-x="1959" 
d="M408 0l-338 1393h297l215 -1106h8l209 1106h362l209 -1106h8l219 1106h291l-336 -1393h-362l-207 1092h-8l-209 -1092h-358z" />
    <glyph glyph-name="X" unicode="X" horiz-adv-x="1267" 
d="M356 0h-313l432 711l-412 682h314l260 -459l260 459h307l-407 -682l428 -711h-310l-280 485z" />
    <glyph glyph-name="Y" unicode="Y" horiz-adv-x="1249" 
d="M492 545l-465 848h301l299 -578l299 578h297l-465 -848v-545h-266v545z" />
    <glyph glyph-name="Z" unicode="Z" horiz-adv-x="1253" 
d="M1137 0h-1039v221l713 946h-680v226h1010v-222l-717 -946h713v-225z" />
    <glyph glyph-name="bracketleft" unicode="[" horiz-adv-x="768" 
d="M676 -348h-502v1814h502v-192h-256v-1430h256v-192z" />
    <glyph glyph-name="backslash" unicode="\" horiz-adv-x="1001" 
d="M688 0l-639 1393h266l639 -1393h-266z" />
    <glyph glyph-name="bracketright" unicode="]" horiz-adv-x="768" 
d="M92 -348v192h256v1430h-256v192h502v-1814h-502z" />
    <glyph glyph-name="asciicircum" unicode="^" 
d="M307 598h-215l424 795h197l424 -795h-213l-312 582z" />
    <glyph glyph-name="underscore" unicode="_" horiz-adv-x="1253" 
d="M145 -276v163h963v-163h-963z" />
    <glyph glyph-name="quoteleft" unicode="&#x2018;" horiz-adv-x="575" 
d="M432 827h-295v295l154 271h135l-147 -271h153v-295z" />
    <glyph glyph-name="a" unicode="a" horiz-adv-x="1173" 
d="M360 358v-90c0 -63 63 -94 154 -94c65 0 117 23 154 69c38 47 57 103 57 169v41l-307 -27c-38 -3 -58 -27 -58 -68zM94 297c0 85 29 158 88 219s143 98 254 107l289 24v68c0 109 -63 155 -164 155c-104 0 -176 -51 -176 -147h-256c5 228 193 346 442 346
c125 0 224 -30 297 -91s109 -150 109 -267v-512h176v-199h-403l-2 162h-9c-60 -115 -154 -187 -315 -187c-190 0 -330 134 -330 322z" />
    <glyph glyph-name="b" unicode="b" horiz-adv-x="1236" 
d="M414 600v-156c0 -164 71 -270 235 -270c133 0 215 78 215 201v295c0 123 -80 200 -215 200c-164 0 -235 -106 -235 -270zM414 0h-256v1393h256v-490c65 104 165 166 305 166c280 0 411 -243 411 -547c0 -231 -73 -418 -229 -504c-52 -29 -113 -43 -182 -43
c-139 0 -240 62 -305 166v-141z" />
    <glyph glyph-name="c" unicode="c" horiz-adv-x="1112" 
d="M104 516c0 344 183 553 469 553c220 0 413 -112 437 -377h-256c-13 133 -87 178 -191 178c-52 0 -97 -17 -135 -50s-57 -85 -57 -154v-287c0 -64 18 -114 54 -151c36 -36 83 -54 140 -54c115 0 181 47 197 186h256c-26 -258 -210 -385 -440 -385
c-311 0 -474 221 -474 541z" />
    <glyph glyph-name="d" unicode="d" horiz-adv-x="1236" 
d="M373 670v-295c0 -59 19 -107 58 -145c39 -37 91 -56 157 -56c82 0 142 25 179 74s56 115 56 196v156c0 164 -71 270 -235 270c-67 0 -119 -19 -158 -56c-38 -37 -57 -85 -57 -144zM106 522c0 230 75 418 230 504c52 29 113 43 182 43c139 0 240 -62 305 -166v490h256
v-1393h-256v141c-65 -104 -161 -166 -301 -166c-277 0 -416 244 -416 547z" />
    <glyph glyph-name="e" unicode="e" horiz-adv-x="1140" 
d="M371 676v-37h409v37c0 57 -19 104 -58 140s-88 54 -147 54s-107 -18 -146 -54s-58 -83 -58 -140zM1042 569v-129h-671v-69c0 -63 20 -111 61 -146c41 -34 90 -51 146 -51c112 0 187 61 200 168h256c-17 -116 -66 -206 -147 -271c-81 -64 -185 -96 -312 -96
c-222 0 -376 125 -439 325c-21 67 -32 142 -32 224c0 164 48 300 129 395c41 48 91 85 149 111s122 39 193 39s135 -13 192 -38c173 -76 275 -245 275 -462z" />
    <glyph glyph-name="f" unicode="f" horiz-adv-x="817" 
d="M264 846h-205v198h205v349h516v-199h-260v-150h240v-198h-240v-846h-256v846z" />
    <glyph glyph-name="g" unicode="g" horiz-adv-x="1236" 
d="M373 670v-295c0 -59 19 -107 58 -145c39 -37 91 -56 157 -56c82 0 142 25 179 74s56 115 56 196v156c0 164 -71 270 -235 270c-67 0 -119 -19 -158 -56c-38 -37 -57 -85 -57 -144zM106 522c0 230 75 418 230 504c52 29 113 43 182 43c139 0 240 -62 305 -166v141h256
v-1028c0 -282 -226 -415 -471 -415c-249 0 -430 86 -465 327h256c16 -81 69 -129 189 -129c122 0 235 42 235 230v112c-65 -104 -161 -166 -301 -166c-277 0 -416 244 -416 547z" />
    <glyph glyph-name="h" unicode="h" horiz-adv-x="1214" 
d="M414 0h-256v1393h256v-500c63 112 161 176 309 176c235 0 342 -145 342 -385v-684h-256v666c0 123 -47 194 -170 194c-71 0 -126 -24 -166 -71c-39 -47 -59 -108 -59 -185v-604z" />
    <glyph glyph-name="i" unicode="i" horiz-adv-x="571" 
d="M414 0h-256v1044h256v-1044zM418 1165h-264v228h264v-228z" />
    <glyph glyph-name="j" unicode="j" horiz-adv-x="595" 
d="M442 1165h-264v228h264v-228zM-100 -348v198h282v1194h256v-1392h-538z" />
    <glyph glyph-name="k" unicode="k" horiz-adv-x="1140" 
d="M819 0l-401 573l350 471h303l-373 -471l406 -573h-285zM414 0h-256v1393h256v-1393z" />
    <glyph glyph-name="l" unicode="l" horiz-adv-x="571" 
d="M414 0h-256v1393h256v-1393z" />
    <glyph glyph-name="m" unicode="m" horiz-adv-x="1783" 
d="M414 0h-256v1044h256v-151c60 112 149 176 288 176c151 0 246 -70 293 -195c68 130 174 195 318 195c213 0 321 -145 321 -385v-684h-256v666c0 129 -49 194 -147 194h-2c-61 0 -111 -24 -149 -71c-37 -47 -56 -108 -56 -185v-604h-256v666c0 129 -49 194 -148 194h-2
c-61 0 -111 -24 -148 -71s-56 -108 -56 -185v-604z" />
    <glyph glyph-name="n" unicode="n" horiz-adv-x="1214" 
d="M414 0h-256v1044h256v-151c63 112 161 176 309 176c235 0 342 -145 342 -385v-684h-256v666c0 123 -47 194 -170 194c-71 0 -126 -24 -166 -71c-39 -47 -59 -108 -59 -185v-604z" />
    <glyph glyph-name="o" unicode="o" horiz-adv-x="1187" 
d="M371 674v-303c0 -63 21 -112 63 -146c43 -35 96 -51 160 -51s117 17 159 50c43 33 64 82 64 147v303c0 64 -21 113 -64 146c-42 33 -95 50 -159 50s-117 -17 -160 -51c-42 -34 -63 -82 -63 -145zM137 299c-22 67 -33 141 -33 223s11 156 33 223c44 135 128 233 249 285
c61 26 130 39 208 39s147 -13 208 -39c121 -52 205 -150 248 -285c22 -67 33 -141 33 -223s-11 -156 -33 -223c-43 -133 -127 -233 -248 -285c-61 -26 -130 -39 -208 -39s-147 13 -208 39c-121 52 -205 152 -249 285z" />
    <glyph glyph-name="p" unicode="p" horiz-adv-x="1236" 
d="M414 600v-156c0 -164 71 -270 235 -270c133 0 215 78 215 201v295c0 123 -80 200 -215 200c-164 0 -235 -106 -235 -270zM414 -348h-256v1392h256v-141c65 104 165 166 305 166c280 0 411 -243 411 -547c0 -231 -73 -418 -229 -504c-52 -29 -113 -43 -182 -43
c-139 0 -240 62 -305 166v-489z" />
    <glyph glyph-name="q" unicode="q" horiz-adv-x="1236" 
d="M373 670v-295c0 -59 19 -107 58 -145c39 -37 91 -56 157 -56c82 0 142 25 179 74s56 115 56 196v156c0 164 -71 270 -235 270c-67 0 -119 -19 -158 -56c-38 -37 -57 -85 -57 -144zM106 522c0 230 75 418 230 504c52 29 113 43 182 43c139 0 240 -62 305 -166v141h256
v-1392h-256v489c-65 -104 -161 -166 -301 -166c-277 0 -416 244 -416 547z" />
    <glyph glyph-name="r" unicode="r" horiz-adv-x="792" 
d="M414 0h-256v1044h583v-200h-327v-844z" />
    <glyph glyph-name="s" unicode="s" horiz-adv-x="1056" 
d="M90 332h256c11 -105 74 -158 189 -158c49 0 91 9 126 27c35 19 52 48 52 88c0 76 -63 103 -156 123l-180 39c-175 38 -262 138 -262 299c0 180 150 319 405 319c119 0 216 -29 292 -86s117 -144 122 -260h-256c-5 99 -67 147 -158 147c-88 0 -149 -40 -149 -108
s46 -96 114 -111l207 -45c155 -34 277 -121 277 -305c0 -179 -157 -326 -434 -326c-279 0 -434 128 -445 357z" />
    <glyph glyph-name="t" unicode="t" horiz-adv-x="868" 
d="M266 846h-207v198h207v349h256v-349h260v-198h-260v-647h260v-199h-516v846z" />
    <glyph glyph-name="u" unicode="u" horiz-adv-x="1204" 
d="M147 360v684h256v-665c0 -123 41 -195 164 -195c69 0 124 24 164 71s60 109 60 185v604h256v-1044h-256v152c-63 -115 -160 -177 -308 -177c-224 0 -336 142 -336 385z" />
    <glyph glyph-name="v" unicode="v" horiz-adv-x="1103" 
d="M412 0l-367 1044h274l228 -757h8l233 757h271l-367 -1044h-280z" />
    <glyph glyph-name="w" unicode="w" horiz-adv-x="1634" 
d="M346 0l-291 1044h287l152 -757h8l153 757h320l158 -757h8l155 757h283l-291 -1044h-309l-158 758h-8l-158 -758h-309z" />
    <glyph glyph-name="x" unicode="x" horiz-adv-x="1089" 
d="M322 0h-281l360 549l-331 495h282l193 -307l192 307h277l-328 -495l365 -549h-279l-227 356z" />
    <glyph glyph-name="y" unicode="y" horiz-adv-x="1107" 
d="M428 0l-377 1044h275l227 -745h8l234 745h270l-504 -1392h-446v198h262z" />
    <glyph glyph-name="z" unicode="z" horiz-adv-x="1062" 
d="M958 0h-862v199l535 647h-498v198h811v-198l-541 -647h555v-199z" />
    <glyph glyph-name="braceleft" unicode="{" horiz-adv-x="851" 
d="M504 655h-246v811h502v-192h-256v-619zM258 463h-195v192h195v-192h246v-619h256v-192h-502v811z" />
    <glyph glyph-name="bar" unicode="|" horiz-adv-x="589" 
d="M418 -348h-246v2089h246v-2089z" />
    <glyph glyph-name="braceright" unicode="}" horiz-adv-x="851" 
d="M348 1274h-256v192h502v-811h194v-192h-194v192h-246v619zM92 -348v192h256v619h246v-811h-502z" />
    <glyph glyph-name="asciitilde" unicode="~" 
d="M264 408h-194c0 175 121 297 290 297c98 0 170 -33 295 -101l72 -39c60 -33 93 -47 139 -47c65 0 97 46 97 117h194c0 -175 -121 -297 -291 -297c-73 0 -128 15 -208 56l-91 46c-52 26 -92 46 -120 61c-27 15 -56 23 -87 23c-65 0 -96 -43 -96 -116z" />
    <glyph glyph-name="exclamdown" unicode="&#xa1;" horiz-adv-x="591" 
d="M168 -348v682l41 305h174l41 -305v-682h-256zM444 750h-297v294h297v-294z" />
    <glyph glyph-name="cent" unicode="&#xa2;" 
d="M430 666v-287c0 -96 41 -160 113 -191v668c-65 -27 -113 -90 -113 -190zM164 516c0 153 33 277 100 372c67 96 160 154 279 173v172h172v-170c179 -26 338 -141 354 -371h-256c-11 88 -43 138 -98 162v-668c60 21 93 77 106 174h256c-21 -228 -172 -357 -362 -378v-170
h-172v172c-252 37 -379 245 -379 532z" />
    <glyph glyph-name="sterling" unicode="&#xa3;" 
d="M1114 0h-1022v209h184v407h-184v203h184v211c0 219 141 393 433 393s432 -175 432 -399h-256c0 133 -53 186 -176 186s-177 -55 -177 -186v-205h304v-203h-304v-407h582v-209z" />
    <glyph glyph-name="yen" unicode="&#xa5;" 
d="M383 717l-336 676h270l295 -607l299 607h269l-340 -676h245v-162h-346v-121h346v-162h-346v-272h-254v272h-348v162h348v121h-348v162h246z" />
    <glyph glyph-name="section" unicode="&#xa7;" horiz-adv-x="1267" 
d="M463 723v-399h399v399h-399zM205 -348v201h657v270h-655v1270h909v-201h-653v-268h655v-1272h-913z" />
    <glyph glyph-name="currency" unicode="&#xa4;" 
d="M612 864c-146 0 -266 -119 -266 -266s120 -266 266 -266c147 0 267 119 267 266s-119 266 -267 266zM246 84l-148 149l115 115c-96 136 -96 364 0 500l-115 117l150 149l114 -117c73 47 158 72 250 72c93 0 177 -25 250 -72l117 117l149 -147l-118 -117
c49 -77 73 -161 73 -252c-1 -93 -24 -177 -71 -250l116 -115l-149 -149l-115 115c-141 -96 -364 -96 -504 0z" />
    <glyph glyph-name="quotesingle" unicode="'" horiz-adv-x="530" 
d="M379 887h-227v536h227v-536z" />
    <glyph glyph-name="quotedblleft" unicode="&#x201c;" horiz-adv-x="1073" 
d="M930 827h-295v295l153 271h136l-148 -271h154v-295zM432 827h-295v295l154 271h135l-147 -271h153v-295z" />
    <glyph glyph-name="guillemotleft" unicode="&#xab;" horiz-adv-x="1157" 
d="M801 145l-219 381l219 381h235l-198 -381l198 -381h-235zM326 145l-220 381l220 381h235l-199 -381l199 -381h-235z" />
    <glyph glyph-name="guilsinglleft" unicode="&#x2039;" horiz-adv-x="681" 
d="M326 145l-220 381l220 381h235l-199 -381l199 -381h-235z" />
    <glyph glyph-name="guilsinglright" unicode="&#x203a;" horiz-adv-x="681" 
d="M356 145h-235l198 381l-198 381h235l219 -381z" />
    <glyph glyph-name="endash" unicode="&#x2013;" horiz-adv-x="1253" 
d="M1108 451h-963v208h963v-208z" />
    <glyph glyph-name="paragraph" unicode="&#xb6;" horiz-adv-x="1400" 
d="M446 655h-348v738h1100v-1577h-246v1364h-260v-1364h-246v839z" />
    <glyph glyph-name="bullet" unicode="&#x2022;" horiz-adv-x="1046" 
d="M522 1044c192 0 348 -156 348 -348c0 -193 -156 -346 -348 -346c-193 0 -346 153 -346 346c0 192 154 348 346 348z" />
    <glyph glyph-name="quotesinglbase" unicode="&#x201a;" horiz-adv-x="585" 
d="M299 0h-154v295h295v-295l-153 -270h-135z" />
    <glyph glyph-name="quotedblbase" unicode="&#x201e;" horiz-adv-x="1083" 
d="M797 0h-154v295h295v-295l-154 -270h-135zM299 0h-154v295h295v-295l-153 -270h-135z" />
    <glyph glyph-name="quotedblright" unicode="&#x201d;" horiz-adv-x="1058" 
d="M799 1098h-154v295h295v-295l-154 -271h-135zM301 1098h-154v295h295v-295l-153 -271h-135z" />
    <glyph glyph-name="guillemotright" unicode="&#xbb;" horiz-adv-x="1157" 
d="M831 145h-235l199 381l-199 381h235l220 -381zM356 145h-235l198 381l-198 381h235l219 -381z" />
    <glyph glyph-name="ellipsis" unicode="&#x2026;" horiz-adv-x="1937" 
d="M1792 0h-295v295h295v-295zM1116 0h-295v295h295v-295zM440 0h-295v295h295v-295z" />
    <glyph glyph-name="questiondown" unicode="&#xbf;" horiz-adv-x="1042" 
d="M705 750h-295v294h295v-294zM68 14c0 81 16 147 47 198s73 100 125 146l75 66c68 60 115 111 115 194v21h256v-21c0 -145 -57 -235 -188 -339c-58 -46 -101 -91 -130 -132s-44 -87 -44 -139c0 -109 58 -178 194 -178c139 0 201 73 209 188h256
c-9 -124 -57 -221 -142 -291c-85 -71 -197 -106 -335 -106c-267 0 -438 158 -438 393z" />
    <glyph glyph-name="grave" unicode="`" horiz-adv-x="643" 
d="M225 1174l-227 249h287l151 -249h-211z" />
    <glyph glyph-name="acute" unicode="&#xb4;" horiz-adv-x="643" 
d="M418 1174h-211l151 249h287z" />
    <glyph glyph-name="circumflex" unicode="&#x2c6;" horiz-adv-x="641" 
d="M221 1174h-207l162 249h285l164 -249h-211l-97 118z" />
    <glyph glyph-name="tilde" unicode="&#x2dc;" horiz-adv-x="630" 
d="M121 1192h-144c0 67 17 122 50 165c34 44 85 66 153 66c52 0 104 -23 148 -44l65 -31c21 -10 38 -15 53 -15c44 0 66 25 66 74h143c0 -67 -17 -122 -50 -166c-33 -43 -84 -65 -152 -65c-52 0 -104 22 -149 44l-65 32c-20 10 -38 14 -53 14c-44 0 -66 -25 -65 -74z" />
    <glyph glyph-name="dieresis" unicode="&#xa8;" horiz-adv-x="770" 
d="M684 1202h-242v221h242v-221zM262 1202h-242v221h242v-221z" />
    <glyph glyph-name="cedilla" unicode="&#xb8;" horiz-adv-x="636" 
d="M147 -348v153h168v134h174v-287h-342z" />
    <glyph glyph-name="emdash" unicode="&#x2014;" horiz-adv-x="2215" 
d="M2071 451h-1926v208h1926v-208z" />
    <glyph glyph-name="AE" unicode="&#xc6;" horiz-adv-x="1961" 
d="M842 1167l-314 -645h416v645h-102zM274 0h-288l686 1393h1175v-226h-637v-342h543v-225h-543v-375h637v-225h-903v297h-526z" />
    <glyph glyph-name="ordfeminine" unicode="&#xaa;" horiz-adv-x="839" 
d="M309 850v-23c0 -21 17 -32 51 -32c55 0 89 36 89 88v12l-111 -10c-19 -2 -29 -13 -29 -35zM125 823c0 96 59 158 176 170l148 15v36c0 36 -23 52 -62 52s-68 -17 -68 -56h-176c3 61 28 107 75 138s106 47 175 47c145 0 232 -64 232 -187v-223h92v-143h-260l-2 80h-4
c-34 -61 -85 -92 -154 -93c-52 0 -94 15 -125 46s-47 71 -47 118z" />
    <glyph glyph-name="Oslash" unicode="&#xd8;" horiz-adv-x="1466" 
d="M1022 1067l-426 -852c41 -13 86 -20 137 -20c185 0 334 100 334 286v430c0 59 -15 111 -45 156zM399 911v-430c0 -65 19 -122 56 -170l430 860c-47 19 -97 27 -152 27c-183 0 -334 -102 -334 -287zM113 696c0 239 54 419 161 542c108 123 261 185 459 185
c96 0 181 -14 254 -45l82 164l154 -74l-88 -176c141 -120 219 -317 219 -596c0 -239 -54 -420 -162 -543s-261 -184 -459 -184c-90 0 -170 12 -239 37l-78 -156l-154 74l82 164c-151 120 -231 321 -231 608z" />
    <glyph glyph-name="OE" unicode="&#x152;" horiz-adv-x="2140" 
d="M399 911v-430c0 -186 151 -286 334 -286c185 0 334 100 334 286v430c0 185 -149 287 -334 287c-183 0 -334 -102 -334 -287zM733 1423c130 0 241 -29 334 -88v58h958v-226h-692v-342h598v-225h-598v-375h692v-225h-958v57c-93 -59 -204 -88 -334 -88
c-198 0 -351 61 -459 184c-107 123 -161 304 -161 543s54 419 161 542c108 123 261 185 459 185z" />
    <glyph glyph-name="ordmasculine" unicode="&#xba;" horiz-adv-x="780" 
d="M299 1012v-131c0 -52 38 -78 90 -78s90 26 90 78v131c0 52 -38 78 -90 78s-90 -26 -90 -78zM187 740c-48 51 -72 120 -72 206s24 155 72 206c49 51 116 77 202 77s154 -26 203 -77s74 -120 74 -206s-25 -155 -74 -206s-117 -76 -203 -76s-153 25 -202 76z" />
    <glyph glyph-name="ae" unicode="&#xe6;" horiz-adv-x="1732" 
d="M977 676v-37h393v37c0 57 -18 104 -55 140s-84 54 -141 54s-105 -18 -142 -54s-55 -83 -55 -140zM360 375v-107c0 -63 63 -94 154 -94c65 0 117 23 154 69c38 47 57 103 57 169v30h-303c-41 0 -62 -26 -62 -67zM94 317c0 189 132 322 322 322h309v76
c0 109 -63 155 -164 155c-104 0 -176 -51 -176 -147h-256c5 228 193 346 442 346c136 0 246 -42 314 -119c71 79 173 119 289 119c278 0 458 -213 458 -500v-129h-655v-69c0 -63 20 -112 59 -146c40 -35 87 -51 140 -51c107 0 179 61 192 168h256
c-17 -116 -65 -206 -145 -271c-79 -64 -181 -96 -305 -96c-148 0 -249 50 -328 146h-4c-91 -96 -198 -146 -367 -146c-225 0 -381 135 -381 342z" />
    <glyph glyph-name="oslash" unicode="&#xf8;" horiz-adv-x="1187" 
d="M791 774l-285 -588c26 -8 55 -12 88 -12c64 0 117 17 159 50c43 33 64 82 64 147v303c0 35 -9 69 -26 100zM371 674v-303c0 -21 2 -39 6 -56l268 551c-16 3 -32 4 -51 4c-64 0 -117 -17 -160 -51c-42 -34 -63 -82 -63 -145zM104 522c0 328 179 547 490 547
c51 0 98 -6 141 -18l72 147l158 -70l-74 -149c125 -96 192 -252 192 -457c0 -327 -177 -547 -489 -547c-65 0 -123 11 -178 27l-78 -162l-158 70l86 178c-107 96 -162 246 -162 434z" />
    <glyph glyph-name="oe" unicode="&#x153;" horiz-adv-x="1873" 
d="M1104 676v-37h409v37c0 57 -19 104 -58 140s-87 54 -146 54s-108 -18 -147 -54s-58 -83 -58 -140zM371 674v-303c0 -63 21 -112 63 -146c43 -35 96 -51 160 -51s117 17 159 50c43 33 64 82 64 147v303c0 64 -21 113 -64 146c-42 33 -95 50 -159 50s-117 -17 -160 -51
c-42 -34 -63 -82 -63 -145zM594 1069c161 0 288 -56 369 -160c84 104 198 160 346 160c282 0 467 -213 467 -500v-129h-672v-69c0 -63 20 -111 61 -146c41 -34 90 -51 146 -51c112 0 187 61 200 168h256c-17 -116 -66 -206 -147 -271c-81 -64 -184 -96 -311 -96
c-151 0 -268 57 -351 158c-81 -101 -205 -158 -364 -158c-311 0 -490 220 -490 547c0 328 179 547 490 547z" />
    <glyph glyph-name="germandbls" unicode="&#xdf;" horiz-adv-x="1181" 
d="M414 0h-256v1034c0 213 174 389 452 389s443 -169 443 -356c0 -93 -17 -164 -51 -213c-33 -49 -84 -90 -152 -121c68 -21 121 -58 162 -112c40 -53 61 -131 61 -232c0 -271 -185 -420 -516 -420h-20v211h14c172 0 258 47 258 172v148c0 84 -30 131 -131 131h-141v207h120
c101 0 131 44 131 129v114c0 88 -69 133 -178 133c-131 0 -196 -68 -196 -180v-1034z" />
    <glyph glyph-name="logicalnot" unicode="&#xac;" 
d="M920 621h-838v196h1044v-569h-206v373z" />
    <glyph glyph-name="mu" unicode="&#xb5;" horiz-adv-x="1275" 
d="M440 -348h-256v1392h256v-675c0 -123 41 -195 164 -195c69 0 124 23 163 70c40 47 60 109 60 186v614h256v-1044h-256v152c-65 -117 -162 -176 -290 -177c-38 0 -70 8 -97 25v-348z" />
    <glyph glyph-name="trademark" unicode="&#x2122;" horiz-adv-x="1794" 
d="M1006 696h-177v697h254l150 -447l149 447h250v-697h-176v422l-143 -422h-166l-141 422v-422zM340 1239h-209v154h594v-154h-209v-543h-176v543z" />
    <glyph glyph-name="Eth" unicode="&#xd0;" horiz-adv-x="1409" 
d="M469 598v-373h205c221 0 332 84 332 271v401c0 185 -111 270 -332 270h-205v-372h299v-197h-299zM203 598h-148v197h148v598h471c220 0 378 -58 474 -173s144 -290 144 -524c0 -233 -48 -408 -144 -523s-254 -173 -474 -173h-471v598z" />
    <glyph glyph-name="onehalf" unicode="&#xbd;" horiz-adv-x="1597" 
d="M1122 485h-176c0 82 27 144 82 185c55 42 123 63 205 63s145 -20 190 -60c45 -39 68 -90 68 -151c0 -111 -65 -175 -121 -223l-176 -149v-7h309v-143h-553v139l279 252c44 39 86 78 86 125s-33 76 -88 76c-69 0 -104 -36 -105 -107zM446 0h-204l872 1393h205zM307 1126
h-227v144h227v123h176v-717h-176v450z" />
    <glyph glyph-name="plusminus" unicode="&#xb1;" 
d="M502 547h-420v196h420v301h205v-301h440v-196h-440v-281h-205v281zM1147 0h-1065v197h1065v-197z" />
    <glyph glyph-name="Thorn" unicode="&#xde;" horiz-adv-x="1263" 
d="M438 928v-443h330c93 0 131 47 131 140v172c0 93 -32 131 -131 131h-330zM438 0h-266v1393h266v-240h301c297 0 437 -138 437 -446c0 -147 -40 -259 -119 -334s-185 -113 -316 -113h-303v-260z" />
    <glyph glyph-name="onequarter" unicode="&#xbc;" horiz-adv-x="1576" 
d="M1196 522l-164 -235h172v235h-8zM1200 143h-332v144l312 430h192v-430h129v-144h-129v-143h-172v143zM446 0h-204l872 1393h205zM307 1126h-227v144h227v123h176v-717h-176v450z" />
    <glyph glyph-name="divide" unicode="&#xf7;" 
d="M743 784h-258v260h258v-260zM743 0h-258v260h258v-260zM1147 424h-1065v197h1065v-197z" />
    <glyph glyph-name="brokenbar" unicode="&#xa6;" horiz-adv-x="552" 
d="M399 887h-245v854h245v-854zM399 -348h-245v854h245v-854z" />
    <glyph glyph-name="degree" unicode="&#xb0;" horiz-adv-x="786" 
d="M537 1137c0 39 -14 73 -42 101s-62 42 -102 42c-39 0 -73 -14 -101 -42s-42 -62 -42 -101s14 -73 42 -102c28 -28 62 -42 101 -42s73 14 101 42c29 28 43 62 43 102zM393 850c-158 0 -287 129 -287 287c0 157 129 286 287 286s287 -129 287 -286
c0 -158 -128 -287 -287 -287z" />
    <glyph glyph-name="thorn" unicode="&#xfe;" horiz-adv-x="1236" 
d="M414 600v-156c0 -164 71 -270 235 -270c133 0 215 78 215 201v295c0 123 -80 200 -215 200c-164 0 -235 -106 -235 -270zM414 -348h-256v1741h256v-490c65 104 165 166 305 166c280 0 411 -243 411 -547c0 -231 -73 -418 -229 -504c-52 -29 -113 -43 -182 -43
c-139 0 -240 62 -305 166v-489z" />
    <glyph glyph-name="threequarters" unicode="&#xbe;" horiz-adv-x="1650" 
d="M1270 522l-164 -235h172v235h-8zM1274 143h-332v144l311 430h193v-430h129v-144h-129v-143h-172v143zM520 0h-205l873 1393h205zM86 903h176c5 -79 48 -102 119 -102c76 0 106 29 106 69v56c0 33 -19 49 -57 49h-147v135h137c34 0 51 16 51 47v47c0 39 -38 64 -90 64
c-57 0 -100 -25 -100 -82h-177c5 133 101 223 281 223c86 0 151 -21 195 -62c45 -41 67 -89 67 -145c0 -81 -43 -135 -115 -160c87 -25 131 -78 132 -161c0 -64 -25 -117 -75 -159s-118 -63 -204 -63s-157 20 -212 60c-55 41 -84 102 -87 184z" />
    <glyph glyph-name="registered" unicode="&#xae;" horiz-adv-x="1671" 
d="M741 907v-188h154c41 0 55 27 55 59v74c0 37 -18 55 -55 55h-154zM741 348h-174v696h330c141 0 227 -78 227 -231c0 -128 -57 -190 -137 -219l143 -246h-184l-133 236h-72v-236zM1389 696c0 309 -246 553 -553 553c-232 0 -425 -137 -510 -337c-28 -67 -43 -139 -43 -216
c0 -153 61 -292 160 -392c50 -50 109 -89 176 -118c68 -29 140 -43 217 -43s149 15 216 43c199 83 337 281 337 510zM109 696c0 402 324 727 727 727c400 0 727 -325 727 -727c0 -203 -82 -382 -214 -514c-65 -65 -142 -117 -231 -156c-89 -38 -183 -57 -282 -57
c-404 2 -726 324 -727 727z" />
    <glyph glyph-name="eth" unicode="&#xf0;" horiz-adv-x="1181" 
d="M367 592v-221c0 -64 21 -114 63 -147c43 -34 96 -50 160 -50s117 17 159 50c43 33 64 82 64 147v221c0 64 -22 113 -66 146c-43 33 -96 50 -157 50c-64 0 -117 -17 -160 -50c-42 -33 -63 -82 -63 -146zM100 481c0 306 193 506 469 506h25c9 0 18 -1 27 -2l-68 107h-268
v163h164l-91 138h269l88 -138h276v-163h-166l95 -144l48 -76c54 -86 111 -218 111 -391c0 -308 -192 -506 -489 -506s-490 199 -490 506z" />
    <glyph glyph-name="multiply" unicode="&#xd7;" 
d="M233 -2l-141 141l383 381l-383 383l141 141l381 -382l383 382l140 -139l-383 -383l385 -383l-142 -141l-383 383z" />
    <glyph glyph-name="copyright" unicode="&#xa9;" horiz-adv-x="1671" 
d="M518 692c0 117 29 209 86 276s135 101 234 101c146 0 283 -80 297 -262h-177c-8 96 -55 125 -127 125c-71 0 -129 -42 -129 -137v-197c0 -88 50 -137 129 -137s119 26 134 125h176c-11 -90 -44 -156 -100 -199c-55 -42 -122 -63 -201 -63c-211 0 -322 150 -322 368z
M1389 696c0 309 -246 553 -553 553c-232 0 -425 -137 -510 -337c-28 -67 -43 -139 -43 -216c0 -153 61 -292 160 -392c50 -50 109 -89 176 -118c68 -29 140 -43 217 -43s149 15 216 43c199 83 337 281 337 510zM109 696c0 402 324 727 727 727c400 0 727 -325 727 -727
c0 -203 -82 -382 -214 -514c-65 -65 -142 -117 -231 -156c-89 -38 -183 -57 -282 -57c-404 2 -726 324 -727 727z" />
    <glyph glyph-name="Aacute" unicode="&#xc1;" horiz-adv-x="1314" 
d="M655 1071l-168 -549h338l-161 549h-9zM666 1530h-211l151 249h287zM328 0h-287l475 1393h283l473 -1393h-287l-92 297h-475z" />
    <glyph glyph-name="Acircumflex" unicode="&#xc2;" horiz-adv-x="1314" 
d="M655 1071l-168 -549h338l-161 549h-9zM553 1530h-207l162 249h285l164 -249h-211l-97 118zM328 0h-287l475 1393h283l473 -1393h-287l-92 297h-475z" />
    <glyph glyph-name="Adieresis" unicode="&#xc4;" horiz-adv-x="1314" 
d="M983 1558h-242v221h242v-221zM655 1071l-168 -549h338l-161 549h-9zM561 1558h-242v221h242v-221zM328 0h-287l475 1393h283l473 -1393h-287l-92 297h-475z" />
    <glyph glyph-name="Agrave" unicode="&#xc0;" horiz-adv-x="1314" 
d="M655 1071l-168 -549h338l-161 549h-9zM643 1530l-227 249h287l151 -249h-211zM328 0h-287l475 1393h283l473 -1393h-287l-92 297h-475z" />
    <glyph glyph-name="Aring" unicode="&#xc5;" horiz-adv-x="1314" 
d="M575 1729c2 -47 39 -82 84 -84c72 -3 110 97 58 142c-45 53 -145 12 -142 -58zM655 1071l-168 -549h338l-161 549h-9zM453 1729c0 57 20 105 60 143s89 57 146 57s106 -19 145 -57c40 -38 60 -86 60 -143s-20 -106 -60 -145c-39 -39 -88 -58 -145 -58
c-112 0 -206 88 -206 203zM328 0h-287l475 1393h283l473 -1393h-287l-92 297h-475z" />
    <glyph glyph-name="Atilde" unicode="&#xc3;" horiz-adv-x="1314" 
d="M655 1071l-168 -549h338l-161 549h-9zM465 1540h-144c0 67 17 122 50 165c34 44 85 66 153 66c52 0 104 -23 148 -44l65 -31c21 -10 38 -15 53 -15c44 0 66 25 66 74h143c0 -67 -17 -122 -50 -166c-33 -43 -84 -65 -152 -65c-52 0 -104 22 -149 44l-65 32
c-20 10 -38 14 -53 14c-44 0 -66 -25 -65 -74zM328 0h-287l475 1393h283l473 -1393h-287l-92 297h-475z" />
    <glyph glyph-name="Ccedilla" unicode="&#xc7;" horiz-adv-x="1335" 
d="M430 -348v153h168v134h174v-287h-342zM113 692c0 443 193 731 598 731c285 0 498 -171 514 -446h-267c-13 148 -107 221 -266 221c-171 0 -293 -112 -293 -287v-426c0 -169 134 -290 301 -290s254 67 281 231h266c-42 -320 -260 -457 -551 -457c-402 0 -583 305 -583 723
z" />
    <glyph glyph-name="Eacute" unicode="&#xc9;" horiz-adv-x="1245" 
d="M688 1530h-211l151 249h287zM1130 0h-958v1393h958v-226h-692v-342h598v-225h-598v-375h692v-225z" />
    <glyph glyph-name="Ecircumflex" unicode="&#xca;" horiz-adv-x="1245" 
d="M545 1530h-207l162 249h285l164 -249h-211l-97 118zM1130 0h-958v1393h958v-226h-692v-342h598v-225h-598v-375h692v-225z" />
    <glyph glyph-name="Edieresis" unicode="&#xcb;" horiz-adv-x="1245" 
d="M975 1558h-242v221h242v-221zM553 1558h-242v221h242v-221zM1130 0h-958v1393h958v-226h-692v-342h598v-225h-598v-375h692v-225z" />
    <glyph glyph-name="Egrave" unicode="&#xc8;" horiz-adv-x="1245" 
d="M573 1530l-227 249h287l151 -249h-211zM1130 0h-958v1393h958v-226h-692v-342h598v-225h-598v-375h692v-225z" />
    <glyph glyph-name="Iacute" unicode="&#xcd;" horiz-adv-x="610" 
d="M438 0h-266v1393h266v-1393zM334 1530h-211l151 249h287z" />
    <glyph glyph-name="Icircumflex" unicode="&#xce;" horiz-adv-x="610" 
d="M438 0h-266v1393h266v-1393zM205 1530h-207l162 249h285l164 -249h-211l-97 118z" />
    <glyph glyph-name="Idieresis" unicode="&#xcf;" horiz-adv-x="610" 
d="M633 1558h-242v221h242v-221zM438 0h-266v1393h266v-1393zM211 1558h-242v221h242v-221z" />
    <glyph glyph-name="Igrave" unicode="&#xcc;" horiz-adv-x="610" 
d="M438 0h-266v1393h266v-1393zM227 1530l-227 249h287l151 -249h-211z" />
    <glyph glyph-name="Ntilde" unicode="&#xd1;" horiz-adv-x="1431" 
d="M520 1540h-144c0 67 17 122 50 165c34 44 85 66 153 66c52 0 104 -23 148 -44l65 -31c21 -10 38 -15 53 -15c44 0 66 25 66 74h143c0 -67 -17 -122 -50 -166c-33 -43 -84 -65 -152 -65c-52 0 -104 22 -149 44l-65 32c-20 10 -38 14 -53 14c-44 0 -66 -25 -65 -74zM436 0
h-264v1393h399l416 -1061h8v1061h265v-1393h-400l-416 1063h-8v-1063z" />
    <glyph glyph-name="Oacute" unicode="&#xd3;" horiz-adv-x="1466" 
d="M803 1553h-211l151 249h287zM399 911v-430c0 -186 151 -286 334 -286c185 0 334 100 334 286v430c0 185 -149 287 -334 287c-183 0 -334 -102 -334 -287zM274 153c-107 123 -161 304 -161 543s54 419 161 542c108 123 261 185 459 185s351 -62 459 -185
s162 -303 162 -542s-54 -420 -162 -543s-261 -184 -459 -184s-351 61 -459 184z" />
    <glyph glyph-name="Ocircumflex" unicode="&#xd4;" horiz-adv-x="1466" 
d="M633 1553h-207l162 249h285l164 -249h-211l-97 118zM399 911v-430c0 -186 151 -286 334 -286c185 0 334 100 334 286v430c0 185 -149 287 -334 287c-183 0 -334 -102 -334 -287zM274 153c-107 123 -161 304 -161 543s54 419 161 542c108 123 261 185 459 185
s351 -62 459 -185s162 -303 162 -542s-54 -420 -162 -543s-261 -184 -459 -184s-351 61 -459 184z" />
    <glyph glyph-name="Odieresis" unicode="&#xd6;" horiz-adv-x="1466" 
d="M1065 1581h-242v221h242v-221zM643 1581h-242v221h242v-221zM399 911v-430c0 -186 151 -286 334 -286c185 0 334 100 334 286v430c0 185 -149 287 -334 287c-183 0 -334 -102 -334 -287zM274 153c-107 123 -161 304 -161 543s54 419 161 542c108 123 261 185 459 185
s351 -62 459 -185s162 -303 162 -542s-54 -420 -162 -543s-261 -184 -459 -184s-351 61 -459 184z" />
    <glyph glyph-name="Ograve" unicode="&#xd2;" horiz-adv-x="1466" 
d="M645 1553l-227 249h287l151 -249h-211zM399 911v-430c0 -186 151 -286 334 -286c185 0 334 100 334 286v430c0 185 -149 287 -334 287c-183 0 -334 -102 -334 -287zM274 153c-107 123 -161 304 -161 543s54 419 161 542c108 123 261 185 459 185s351 -62 459 -185
s162 -303 162 -542s-54 -420 -162 -543s-261 -184 -459 -184s-351 61 -459 184z" />
    <glyph glyph-name="Otilde" unicode="&#xd5;" horiz-adv-x="1466" 
d="M399 911v-430c0 -186 151 -286 334 -286c185 0 334 100 334 286v430c0 185 -149 287 -334 287c-183 0 -334 -102 -334 -287zM539 1540h-144c0 67 17 122 50 165c34 44 85 66 153 66c52 0 104 -23 148 -44l65 -31c21 -10 38 -15 53 -15c44 0 66 25 66 74h143
c0 -67 -17 -122 -50 -166c-33 -43 -84 -65 -152 -65c-52 0 -104 22 -149 44l-65 32c-20 10 -38 14 -53 14c-44 0 -66 -25 -65 -74zM274 153c-107 123 -161 304 -161 543s54 419 161 542c108 123 261 185 459 185s351 -62 459 -185s162 -303 162 -542s-54 -420 -162 -543
s-261 -184 -459 -184s-351 61 -459 184z" />
    <glyph glyph-name="Uacute" unicode="&#xda;" horiz-adv-x="1404" 
d="M758 1530h-211l151 249h287zM158 496v897h266v-908c0 -180 93 -290 278 -290c188 0 281 107 281 290v908h264v-897c0 -323 -208 -527 -545 -527c-336 0 -544 201 -544 527z" />
    <glyph glyph-name="Ucircumflex" unicode="&#xdb;" horiz-adv-x="1404" 
d="M624 1530h-207l162 249h285l164 -249h-211l-97 118zM158 496v897h266v-908c0 -180 93 -290 278 -290c188 0 281 107 281 290v908h264v-897c0 -323 -208 -527 -545 -527c-336 0 -544 201 -544 527z" />
    <glyph glyph-name="Udieresis" unicode="&#xdc;" horiz-adv-x="1404" 
d="M1034 1558h-242v221h242v-221zM612 1558h-242v221h242v-221zM158 496v897h266v-908c0 -180 93 -290 278 -290c188 0 281 107 281 290v908h264v-897c0 -323 -208 -527 -545 -527c-336 0 -544 201 -544 527z" />
    <glyph glyph-name="Ugrave" unicode="&#xd9;" horiz-adv-x="1404" 
d="M653 1530l-227 249h287l151 -249h-211zM158 496v897h266v-908c0 -180 93 -290 278 -290c188 0 281 107 281 290v908h264v-897c0 -323 -208 -527 -545 -527c-336 0 -544 201 -544 527z" />
    <glyph glyph-name="Yacute" unicode="&#xdd;" horiz-adv-x="1249" 
d="M723 1489h-211l151 249h287zM492 545l-465 848h301l299 -578l299 578h297l-465 -848v-545h-266v545z" />
    <glyph glyph-name="Ydieresis" unicode="&#x178;" horiz-adv-x="1249" 
d="M958 1558h-242v221h242v-221zM536 1558h-242v221h242v-221zM492 545l-465 848h301l299 -578l299 578h297l-465 -848v-545h-266v545z" />
    <glyph glyph-name="aacute" unicode="&#xe1;" horiz-adv-x="1173" 
d="M660 1174h-211l151 249h287zM360 358v-90c0 -63 63 -94 154 -94c65 0 117 23 154 69c38 47 57 103 57 169v41l-307 -27c-38 -3 -58 -27 -58 -68zM94 297c0 85 29 158 88 219s143 98 254 107l289 24v68c0 109 -63 155 -164 155c-104 0 -176 -51 -176 -147h-256
c5 228 193 346 442 346c125 0 224 -30 297 -91s109 -150 109 -267v-512h176v-199h-403l-2 162h-9c-60 -115 -154 -187 -315 -187c-190 0 -330 134 -330 322z" />
    <glyph glyph-name="acircumflex" unicode="&#xe2;" horiz-adv-x="1173" 
d="M360 358v-90c0 -63 63 -94 154 -94c65 0 117 23 154 69c38 47 57 103 57 169v41l-307 -27c-38 -3 -58 -27 -58 -68zM465 1174h-207l162 249h285l164 -249h-211l-97 118zM94 297c0 85 29 158 88 219s143 98 254 107l289 24v68c0 109 -63 155 -164 155
c-104 0 -176 -51 -176 -147h-256c5 228 193 346 442 346c125 0 224 -30 297 -91s109 -150 109 -267v-512h176v-199h-403l-2 162h-9c-60 -115 -154 -187 -315 -187c-190 0 -330 134 -330 322z" />
    <glyph glyph-name="adieresis" unicode="&#xe4;" horiz-adv-x="1173" 
d="M893 1202h-242v221h242v-221zM360 358v-90c0 -63 63 -94 154 -94c65 0 117 23 154 69c38 47 57 103 57 169v41l-307 -27c-38 -3 -58 -27 -58 -68zM471 1202h-242v221h242v-221zM94 297c0 85 29 158 88 219s143 98 254 107l289 24v68c0 109 -63 155 -164 155
c-104 0 -176 -51 -176 -147h-256c5 228 193 346 442 346c125 0 224 -30 297 -91s109 -150 109 -267v-512h176v-199h-403l-2 162h-9c-60 -115 -154 -187 -315 -187c-190 0 -330 134 -330 322z" />
    <glyph glyph-name="agrave" unicode="&#xe0;" horiz-adv-x="1173" 
d="M360 358v-90c0 -63 63 -94 154 -94c65 0 117 23 154 69c38 47 57 103 57 169v41l-307 -27c-38 -3 -58 -27 -58 -68zM452 1174l-227 249h287l151 -249h-211zM94 297c0 85 29 158 88 219s143 98 254 107l289 24v68c0 109 -63 155 -164 155c-104 0 -176 -51 -176 -147h-256
c5 228 193 346 442 346c125 0 224 -30 297 -91s109 -150 109 -267v-512h176v-199h-403l-2 162h-9c-60 -115 -154 -187 -315 -187c-190 0 -330 134 -330 322z" />
    <glyph glyph-name="aring" unicode="&#xe5;" horiz-adv-x="1173" 
d="M477 1350c2 -47 39 -82 84 -84c72 -3 110 97 58 142c-45 53 -145 12 -142 -58zM360 358v-90c0 -63 63 -94 154 -94c65 0 117 23 154 69c38 47 57 103 57 169v41l-307 -27c-38 -3 -58 -27 -58 -68zM355 1350c0 57 20 105 60 143s89 57 146 57s106 -19 145 -57
c40 -38 60 -86 60 -143s-20 -106 -60 -145c-39 -39 -88 -58 -145 -58c-112 0 -206 88 -206 203zM94 297c0 85 29 158 88 219s143 98 254 107l289 24v68c0 109 -63 155 -164 155c-104 0 -176 -51 -176 -147h-256c5 228 193 346 442 346c125 0 224 -30 297 -91
s109 -150 109 -267v-512h176v-199h-403l-2 162h-9c-60 -115 -154 -187 -315 -187c-190 0 -330 134 -330 322z" />
    <glyph glyph-name="atilde" unicode="&#xe3;" horiz-adv-x="1173" 
d="M360 358v-90c0 -63 63 -94 154 -94c65 0 117 23 154 69c38 47 57 103 57 169v41l-307 -27c-38 -3 -58 -27 -58 -68zM387 1192h-144c0 67 17 122 50 165c34 44 85 66 153 66c52 0 103 -24 148 -45l65 -30c21 -10 38 -15 53 -15c44 0 66 25 66 74h143
c0 -67 -17 -122 -50 -166c-33 -43 -84 -65 -152 -65c-52 0 -104 22 -149 44l-64 31c-21 10 -39 15 -54 15c-44 0 -66 -25 -65 -74zM94 297c0 85 29 158 88 219s143 98 254 107l289 24v68c0 109 -63 155 -164 155c-104 0 -176 -51 -176 -147h-256c5 228 193 346 442 346
c125 0 224 -30 297 -91s109 -150 109 -267v-512h176v-199h-403l-2 162h-9c-60 -115 -154 -187 -315 -187c-190 0 -330 134 -330 322z" />
    <glyph glyph-name="ccedilla" unicode="&#xe7;" horiz-adv-x="1112" 
d="M317 -348v153h168v134h174v-287h-342zM104 516c0 344 183 553 469 553c220 0 413 -112 437 -377h-256c-13 133 -87 178 -191 178c-52 0 -97 -17 -135 -50s-57 -85 -57 -154v-287c0 -64 18 -114 54 -151c36 -36 83 -54 140 -54c115 0 181 47 197 186h256
c-26 -258 -210 -385 -440 -385c-311 0 -474 221 -474 541z" />
    <glyph glyph-name="eacute" unicode="&#xe9;" horiz-adv-x="1140" 
d="M672 1174h-211l151 249h287zM371 676v-37h409v37c0 57 -19 104 -58 140s-88 54 -147 54s-107 -18 -146 -54s-58 -83 -58 -140zM1042 569v-129h-671v-69c0 -63 20 -111 61 -146c41 -34 90 -51 146 -51c112 0 187 61 200 168h256c-17 -116 -66 -206 -147 -271
c-81 -64 -185 -96 -312 -96c-222 0 -376 125 -439 325c-21 67 -32 142 -32 224c0 164 48 300 129 395c41 48 91 85 149 111s122 39 193 39s135 -13 192 -38c173 -76 275 -245 275 -462z" />
    <glyph glyph-name="ecircumflex" unicode="&#xea;" horiz-adv-x="1140" 
d="M371 676v-37h409v37c0 57 -19 104 -58 140s-88 54 -147 54s-107 -18 -146 -54s-58 -83 -58 -140zM475 1174h-207l162 249h285l164 -249h-211l-97 118zM1042 569v-129h-671v-69c0 -63 20 -111 61 -146c41 -34 90 -51 146 -51c112 0 187 61 200 168h256
c-17 -116 -66 -206 -147 -271c-81 -64 -185 -96 -312 -96c-222 0 -376 125 -439 325c-21 67 -32 142 -32 224c0 164 48 300 129 395c41 48 91 85 149 111s122 39 193 39s135 -13 192 -38c173 -76 275 -245 275 -462z" />
    <glyph glyph-name="edieresis" unicode="&#xeb;" horiz-adv-x="1140" 
d="M905 1202h-242v221h242v-221zM371 676v-37h409v37c0 57 -19 104 -58 140s-88 54 -147 54s-107 -18 -146 -54s-58 -83 -58 -140zM483 1202h-242v221h242v-221zM1042 569v-129h-671v-69c0 -63 20 -111 61 -146c41 -34 90 -51 146 -51c112 0 187 61 200 168h256
c-17 -116 -66 -206 -147 -271c-81 -64 -185 -96 -312 -96c-222 0 -376 125 -439 325c-21 67 -32 142 -32 224c0 164 48 300 129 395c41 48 91 85 149 111s122 39 193 39s135 -13 192 -38c173 -76 275 -245 275 -462z" />
    <glyph glyph-name="egrave" unicode="&#xe8;" horiz-adv-x="1140" 
d="M371 676v-37h409v37c0 57 -19 104 -58 140s-88 54 -147 54s-107 -18 -146 -54s-58 -83 -58 -140zM485 1174l-227 249h287l151 -249h-211zM1042 569v-129h-671v-69c0 -63 20 -111 61 -146c41 -34 90 -51 146 -51c112 0 187 61 200 168h256c-17 -116 -66 -206 -147 -271
c-81 -64 -185 -96 -312 -96c-222 0 -376 125 -439 325c-21 67 -32 142 -32 224c0 164 48 300 129 395c41 48 91 85 149 111s122 39 193 39s135 -13 192 -38c173 -76 275 -245 275 -462z" />
    <glyph glyph-name="iacute" unicode="&#xed;" horiz-adv-x="571" 
d="M414 0h-256v1044h256v-1044zM348 1174h-211l151 249h287z" />
    <glyph glyph-name="icircumflex" unicode="&#xee;" horiz-adv-x="571" 
d="M414 0h-256v1044h256v-1044zM192 1174h-207l162 249h285l164 -249h-211l-97 118z" />
    <glyph glyph-name="idieresis" unicode="&#xef;" horiz-adv-x="571" 
d="M621 1202h-242v221h242v-221zM414 0h-256v1044h256v-1044zM199 1202h-242v221h242v-221z" />
    <glyph glyph-name="igrave" unicode="&#xec;" horiz-adv-x="571" 
d="M414 0h-256v1044h256v-1044zM262 1174l-227 249h287l151 -249h-211z" />
    <glyph glyph-name="ntilde" unicode="&#xf1;" horiz-adv-x="1214" 
d="M414 1192h-144c0 67 17 122 50 165c34 44 85 66 153 66c52 0 104 -22 149 -44l64 -31c21 -10 38 -15 53 -15c44 0 66 25 66 74h143c0 -67 -17 -122 -50 -166c-33 -43 -84 -65 -152 -65c-52 0 -105 22 -149 44l-64 32c-20 10 -39 14 -54 14c-44 0 -66 -25 -65 -74zM414 0
h-256v1044h256v-151c63 112 161 176 309 176c235 0 342 -145 342 -385v-684h-256v666c0 123 -47 194 -170 194c-71 0 -126 -24 -166 -71c-39 -47 -59 -108 -59 -185v-604z" />
    <glyph glyph-name="oacute" unicode="&#xf3;" horiz-adv-x="1187" 
d="M688 1174h-211l151 249h287zM371 674v-303c0 -63 21 -112 63 -146c43 -35 96 -51 160 -51s117 17 159 50c43 33 64 82 64 147v303c0 64 -21 113 -64 146c-42 33 -95 50 -159 50s-117 -17 -160 -51c-42 -34 -63 -82 -63 -145zM137 299c-22 67 -33 141 -33 223
s11 156 33 223c44 135 128 233 249 285c61 26 130 39 208 39s147 -13 208 -39c121 -52 205 -150 248 -285c22 -67 33 -141 33 -223s-11 -156 -33 -223c-43 -133 -127 -233 -248 -285c-61 -26 -130 -39 -208 -39s-147 13 -208 39c-121 52 -205 152 -249 285z" />
    <glyph glyph-name="ocircumflex" unicode="&#xf4;" horiz-adv-x="1187" 
d="M371 674v-303c0 -63 21 -112 63 -146c43 -35 96 -51 160 -51s117 17 159 50c43 33 64 82 64 147v303c0 64 -21 113 -64 146c-42 33 -95 50 -159 50s-117 -17 -160 -51c-42 -34 -63 -82 -63 -145zM495 1174h-207l162 249h285l164 -249h-211l-97 118zM137 299
c-22 67 -33 141 -33 223s11 156 33 223c44 135 128 233 249 285c61 26 130 39 208 39s147 -13 208 -39c121 -52 205 -150 248 -285c22 -67 33 -141 33 -223s-11 -156 -33 -223c-43 -133 -127 -233 -248 -285c-61 -26 -130 -39 -208 -39s-147 13 -208 39
c-121 52 -205 152 -249 285z" />
    <glyph glyph-name="odieresis" unicode="&#xf6;" horiz-adv-x="1187" 
d="M926 1202h-242v221h242v-221zM371 674v-303c0 -63 21 -112 63 -146c43 -35 96 -51 160 -51s117 17 159 50c43 33 64 82 64 147v303c0 64 -21 113 -64 146c-42 33 -95 50 -159 50s-117 -17 -160 -51c-42 -34 -63 -82 -63 -145zM504 1202h-242v221h242v-221zM137 299
c-22 67 -33 141 -33 223s11 156 33 223c44 135 128 233 249 285c61 26 130 39 208 39s147 -13 208 -39c121 -52 205 -150 248 -285c22 -67 33 -141 33 -223s-11 -156 -33 -223c-43 -133 -127 -233 -248 -285c-61 -26 -130 -39 -208 -39s-147 13 -208 39
c-121 52 -205 152 -249 285z" />
    <glyph glyph-name="ograve" unicode="&#xf2;" horiz-adv-x="1187" 
d="M371 674v-303c0 -63 21 -112 63 -146c43 -35 96 -51 160 -51s117 17 159 50c43 33 64 82 64 147v303c0 64 -21 113 -64 146c-42 33 -95 50 -159 50s-117 -17 -160 -51c-42 -34 -63 -82 -63 -145zM501 1174l-227 249h287l151 -249h-211zM137 299c-22 67 -33 141 -33 223
s11 156 33 223c44 135 128 233 249 285c61 26 130 39 208 39s147 -13 208 -39c121 -52 205 -150 248 -285c22 -67 33 -141 33 -223s-11 -156 -33 -223c-43 -133 -127 -233 -248 -285c-61 -26 -130 -39 -208 -39s-147 13 -208 39c-121 52 -205 152 -249 285z" />
    <glyph glyph-name="otilde" unicode="&#xf5;" horiz-adv-x="1187" 
d="M371 674v-303c0 -63 21 -112 63 -146c43 -35 96 -51 160 -51s117 17 159 50c43 33 64 82 64 147v303c0 64 -21 113 -64 146c-42 33 -95 50 -159 50s-117 -17 -160 -51c-42 -34 -63 -82 -63 -145zM400 1192h-144c0 67 17 122 50 165c34 44 85 66 153 66
c52 0 104 -23 148 -44l65 -31c21 -10 38 -15 53 -15c44 0 66 25 66 74h143c0 -67 -17 -122 -50 -166c-33 -43 -84 -65 -152 -65c-52 0 -104 22 -149 44l-65 32c-20 10 -38 14 -53 14c-44 0 -66 -25 -65 -74zM137 299c-22 67 -33 141 -33 223s11 156 33 223
c44 135 128 233 249 285c61 26 130 39 208 39s147 -13 208 -39c121 -52 205 -150 248 -285c22 -67 33 -141 33 -223s-11 -156 -33 -223c-43 -133 -127 -233 -248 -285c-61 -26 -130 -39 -208 -39s-147 13 -208 39c-121 52 -205 152 -249 285z" />
    <glyph glyph-name="uacute" unicode="&#xfa;" horiz-adv-x="1204" 
d="M660 1174h-211l151 249h287zM147 360v684h256v-665c0 -123 41 -195 164 -195c69 0 124 24 164 71s60 109 60 185v604h256v-1044h-256v152c-63 -115 -160 -177 -308 -177c-224 0 -336 142 -336 385z" />
    <glyph glyph-name="ucircumflex" unicode="&#xfb;" horiz-adv-x="1204" 
d="M495 1174h-207l162 249h285l164 -249h-211l-97 118zM147 360v684h256v-665c0 -123 41 -195 164 -195c69 0 124 24 164 71s60 109 60 185v604h256v-1044h-256v152c-63 -115 -160 -177 -308 -177c-224 0 -336 142 -336 385z" />
    <glyph glyph-name="udieresis" unicode="&#xfc;" horiz-adv-x="1204" 
d="M924 1202h-242v221h242v-221zM502 1202h-242v221h242v-221zM147 360v684h256v-665c0 -123 41 -195 164 -195c69 0 124 24 164 71s60 109 60 185v604h256v-1044h-256v152c-63 -115 -160 -177 -308 -177c-224 0 -336 142 -336 385z" />
    <glyph glyph-name="ugrave" unicode="&#xf9;" horiz-adv-x="1204" 
d="M514 1174l-227 249h287l151 -249h-211zM147 360v684h256v-665c0 -123 41 -195 164 -195c69 0 124 24 164 71s60 109 60 185v604h256v-1044h-256v152c-63 -115 -160 -177 -308 -177c-224 0 -336 142 -336 385z" />
    <glyph glyph-name="yacute" unicode="&#xfd;" horiz-adv-x="1107" 
d="M631 1174h-211l151 249h287zM428 0l-377 1044h275l227 -745h8l234 745h270l-504 -1392h-446v198h262z" />
    <glyph glyph-name="ydieresis" unicode="&#xff;" horiz-adv-x="1107" 
d="M887 1202h-242v221h242v-221zM465 1202h-242v221h242v-221zM428 0l-377 1044h275l227 -745h8l234 745h270l-504 -1392h-446v198h262z" />
    <glyph glyph-name="figuredash" unicode="&#x2012;" horiz-adv-x="864" 
d="M719 451h-574v208h574v-208z" />
    <glyph glyph-name="NULL" horiz-adv-x="0" 
 />
    <glyph glyph-name="NULL" horiz-adv-x="0" 
 />
    <glyph glyph-name="uni0008" horiz-adv-x="0" 
 />
    <glyph glyph-name="Euro" unicode="&#x20ac;" 
d="M178 475h-176l57 162h105v125h-146l56 162h106c43 301 200 499 535 499c285 0 449 -163 465 -397h-256c-19 128 -81 184 -224 184c-89 0 -152 -26 -190 -79c-38 -52 -58 -121 -59 -207h442l-55 -162h-387v-125h346l-58 -162h-288c3 -180 92 -293 249 -293
c74 0 128 15 161 46s55 83 65 157h256c-19 -260 -180 -416 -477 -416c-324 0 -477 197 -527 506z" />
    <glyph glyph-name="uni00A0" unicode="&#xa0;" horiz-adv-x="503" 
 />
    <glyph glyph-name="uni00AD" unicode="&#xad;" horiz-adv-x="864" 
d="M719 451h-574v208h574v-208z" />
    <glyph glyph-name="overscore" unicode="&#xaf;" horiz-adv-x="643" 
d="M647 1231h-653v162h653v-162z" />
    <glyph glyph-name="uni00B2" unicode="&#xb2;" horiz-adv-x="835" 
d="M315 1161h-176c0 82 27 144 82 185c55 42 123 63 205 63s145 -20 190 -60c45 -39 68 -90 68 -151c0 -112 -65 -175 -121 -223l-176 -150v-6h309v-143h-553v139l279 252c44 39 86 78 86 125s-33 76 -88 76c-69 0 -104 -36 -105 -107z" />
    <glyph glyph-name="uni00B3" unicode="&#xb3;" horiz-adv-x="811" 
d="M115 903h176c5 -79 47 -102 119 -102c76 0 106 29 106 69v56c0 33 -19 49 -57 49h-148v135h138c34 0 51 16 51 47v47c0 39 -38 64 -90 64c-57 0 -101 -25 -101 -82h-176c5 133 101 223 281 223c86 0 151 -21 195 -62c45 -41 67 -89 67 -145c0 -81 -44 -135 -115 -160
c87 -25 131 -78 131 -161c0 -64 -25 -117 -75 -159c-49 -42 -117 -63 -203 -63s-157 20 -212 60c-55 41 -84 102 -87 184z" />
    <glyph glyph-name="middot" unicode="&#xb7;" horiz-adv-x="585" 
d="M440 377h-295v295h295v-295z" />
    <glyph glyph-name="uni00B9" unicode="&#xb9;" horiz-adv-x="657" 
d="M328 1126h-228v144h228v123h176v-717h-176v450z" />
    <glyph glyph-name="CR" horiz-adv-x="0" 
 />
    <glyph glyph-name="uni2000" unicode="&#x2000;" horiz-adv-x="964" 
 />
    <glyph glyph-name="uni2001" unicode="&#x2001;" horiz-adv-x="1929" 
 />
    <glyph glyph-name="uni2002" unicode="&#x2002;" horiz-adv-x="964" 
 />
    <glyph glyph-name="uni2003" unicode="&#x2003;" horiz-adv-x="1929" 
 />
    <glyph glyph-name="uni2004" unicode="&#x2004;" horiz-adv-x="643" 
 />
    <glyph glyph-name="uni2005" unicode="&#x2005;" horiz-adv-x="482" 
 />
    <glyph glyph-name="uni2006" unicode="&#x2006;" horiz-adv-x="321" 
 />
    <glyph glyph-name="uni2007" unicode="&#x2007;" horiz-adv-x="321" 
 />
    <glyph glyph-name="uni2008" unicode="&#x2008;" horiz-adv-x="241" 
 />
    <glyph glyph-name="uni2009" unicode="&#x2009;" horiz-adv-x="385" 
 />
    <glyph glyph-name="uni200A" unicode="&#x200a;" horiz-adv-x="107" 
 />
    <glyph glyph-name="uni2010" unicode="&#x2010;" horiz-adv-x="864" 
d="M719 451h-574v208h574v-208z" />
    <glyph glyph-name="uni2011" unicode="&#x2011;" horiz-adv-x="864" 
d="M719 451h-574v208h574v-208z" />
    <glyph glyph-name="uni202F" unicode="&#x202f;" horiz-adv-x="385" 
 />
    <glyph glyph-name="uni205F" unicode="&#x205f;" horiz-adv-x="482" 
 />
    <glyph glyph-name="uniE000" unicode="&#xe000;" horiz-adv-x="1044" 
d="M1044 0h-1044v1044h1044v-1044z" />
    <glyph glyph-name="uniFB01" unicode="&#xfb01;" horiz-adv-x="1355" 
d="M1202 1165h-264v228h264v-228zM264 846h-205v198h205v349h516v-199h-260v-150h678v-1044h-256v846h-422v-846h-256v846z" />
    <glyph glyph-name="uniFB02" unicode="&#xfb02;" horiz-adv-x="1355" 
d="M264 846h-205v198h205v349h934v-1393h-256v1194h-422v-150h240v-198h-240v-846h-256v846z" />
  </font>
</defs>
</svg>
